# xmcd
#
# Track frame offsets:
#	157
#	16005
#	28053
#	45222
#	59612
#	76318
#	89303
#	105747
#	121447
#	133995
#	150103
#	162833
#	183064
#	197298
#	210969
#	223813
#	247399
#	265393
#	282773
#
# Disc length: 3980 seconds
# Revision: 1
# Processed by: cddbd v1.5.2PL0 Copyright (c) Steve Scherf et al.
# Submitted via: dBpowerAMP V12.0
#
DISCID=fc0f8a13
DTITLE=Allan Caswell - Caswell Sings Caswell
DYEAR=2001
DGENRE=Country
TTITLE0=1963
TTITLE1=On The Inside
TTITLE2=Used To Be A Gold Song
TTITLE3=The Garden
TTITLE4=Are We Having Fun Yet
TTITLE5=The Best That I Can Be
TTITLE6=Another Lost Soul
TTITLE7=Black Jack Blues Again
TTITLE8=Where Do Old Cowboys Go
TTITLE9=Josie's Farm
TTITLE10=Colourblind
TTITLE11=King of The Rodeo
TTITLE12=I'm Gonna Take a Heartbreak
TTITLE13=Funny Things About Rainbows
TTITLE14=Stole My Heart Away
TTITLE15=Proud
TTITLE16=Ohh Baby Ooh
TTITLE17=Spirit of The Green and Gold
TTITLE18=Souths Can Stand Alone
EXTD=
EXTT0=
EXTT1=
EXTT2=
EXTT3=
EXTT4=
EXTT5=
EXTT6=
EXTT7=
EXTT8=
EXTT9=
EXTT10=
EXTT11=
EXTT12=
EXTT13=
EXTT14=
EXTT15=
EXTT16=
EXTT17=
EXTT18=
PLAYORDER=
